# Blender 4.3.2
# www.blender.org
mtllib dock.mtl
o cube
v 0.937500 1.000000 0.430885
v 0.937500 1.000000 -0.569115
v 0.937500 0.000000 0.430885
v 0.937500 -0.000000 -0.569115
v -0.062500 1.000000 -0.569115
v -0.062500 1.000000 0.430885
v -0.062500 -0.000000 -0.569115
v -0.062500 0.000000 0.430885
vn -0.0000 -0.0000 -1.0000
vn 1.0000 -0.0000 -0.0000
vn -0.0000 -0.0000 1.0000
vn -1.0000 -0.0000 -0.0000
vn -0.0000 1.0000 -0.0000
vn -0.0000 -1.0000 -0.0000
vt 0.203125 0.906250
vt 0.218750 0.906250
vt 0.218750 0.921875
vt 0.203125 0.921875
vt 0.187500 0.906250
vt 0.187500 0.921875
vt 0.234375 0.906250
vt 0.250000 0.906250
vt 0.250000 0.921875
vt 0.234375 0.921875
vt 0.218750 0.937500
vt 0.203125 0.937500
vt 0.234375 0.937500
s 1
usemtl m_b5319e4d-bb5b-da07-50bb-b784c47addf3
f 4/1/1 7/2/1 5/3/1 2/4/1
f 3/5/2 4/1/2 2/4/2 1/6/2
f 8/7/3 3/8/3 1/9/3 6/10/3
f 7/2/4 8/7/4 6/10/4 5/3/4
f 6/11/5 1/12/5 2/4/5 5/3/5
f 7/10/6 4/3/6 3/11/6 8/13/6
o cube.001
v 0.937500 1.000000 -0.511041
v 0.937500 0.999999 -7.586453
v 0.937500 -0.000000 -0.511041
v 0.937500 -0.000001 -7.586453
v -0.062500 0.999999 -7.586453
v -0.062500 1.000000 -0.511041
v -0.062500 -0.000001 -7.586453
v -0.062500 -0.000000 -0.511041
vn -0.0000 -0.0000 -1.0000
vn 1.0000 -0.0000 -0.0000
vn -0.0000 -0.0000 1.0000
vn -1.0000 -0.0000 -0.0000
vn -0.0000 1.0000 -0.0000
vn -0.0000 -1.0000 -0.0000
vt 0.078125 0.843750
vt 0.093750 0.843750
vt 0.093750 0.859375
vt 0.078125 0.859375
vt 0.000000 0.843750
vt 0.000000 0.859375
vt 0.171875 0.843750
vt 0.187500 0.843750
vt 0.187500 0.859375
vt 0.171875 0.859375
vt 0.093750 0.937500
vt 0.078125 0.937500
vt 0.109375 0.859375
vt 0.109375 0.937500
s 1
usemtl m_b5319e4d-bb5b-da07-50bb-b784c47addf3
f 12/14/7 15/15/7 13/16/7 10/17/7
f 11/18/8 12/14/8 10/17/8 9/19/8
f 16/20/9 11/21/9 9/22/9 14/23/9
f 15/15/10 16/20/10 14/23/10 13/16/10
f 14/24/11 9/25/11 10/17/11 13/16/11
f 15/26/12 12/16/12 11/24/12 16/27/12
o cube.002
v 0.937500 2.000000 0.437500
v 0.937500 2.000000 -0.562500
v 0.937500 1.000000 0.437500
v 0.937500 1.000000 -0.562500
v -0.062500 2.000000 -0.562500
v -0.062500 2.000000 0.437500
v -0.062500 1.000000 -0.562500
v -0.062500 1.000000 0.437500
vn -0.0000 -0.0000 -1.0000
vn 1.0000 -0.0000 -0.0000
vn -0.0000 -0.0000 1.0000
vn -1.0000 -0.0000 -0.0000
vn -0.0000 1.0000 -0.0000
vn -0.0000 -1.0000 -0.0000
vt 0.203125 0.875000
vt 0.218750 0.875000
vt 0.218750 0.890625
vt 0.203125 0.890625
vt 0.187500 0.875000
vt 0.187500 0.890625
vt 0.234375 0.875000
vt 0.250000 0.875000
vt 0.250000 0.890625
vt 0.234375 0.890625
vt 0.218750 0.906250
vt 0.203125 0.906250
vt 0.234375 0.906250
s 1
usemtl m_b5319e4d-bb5b-da07-50bb-b784c47addf3
f 20/28/13 23/29/13 21/30/13 18/31/13
f 19/32/14 20/28/14 18/31/14 17/33/14
f 24/34/15 19/35/15 17/36/15 22/37/15
f 23/29/16 24/34/16 22/37/16 21/30/16
f 22/38/17 17/39/17 18/31/17 21/30/17
f 23/37/18 20/30/18 19/38/18 24/40/18
o cube.003
v 32.875000 1.000000 7.437500
v 32.875000 1.000000 6.437500
v 32.875000 0.000000 7.437500
v 32.875000 0.000000 6.437500
v 0.875000 1.000000 6.437500
v 0.875000 1.000000 7.437500
v 0.875000 0.000000 6.437500
v 0.875000 0.000000 7.437500
vn -0.0000 -0.0000 -1.0000
vn 1.0000 -0.0000 -0.0000
vn -0.0000 -0.0000 1.0000
vn -1.0000 -0.0000 -0.0000
vn -0.0000 1.0000 -0.0000
vn -0.0000 -1.0000 -0.0000
vt 0.015625 0.968750
vt 0.265625 0.968750
vt 0.265625 0.984375
vt 0.015625 0.984375
vt 0.000000 0.968750
vt 0.000000 0.984375
vt 0.281250 0.968750
vt 0.531250 0.968750
vt 0.531250 0.984375
vt 0.281250 0.984375
vt 0.265625 1.000000
vt 0.015625 1.000000
vt 0.515625 0.984375
vt 0.515625 1.000000
s 1
usemtl m_b5319e4d-bb5b-da07-50bb-b784c47addf3
f 28/41/19 31/42/19 29/43/19 26/44/19
f 27/45/20 28/41/20 26/44/20 25/46/20
f 32/47/21 27/48/21 25/49/21 30/50/21
f 31/42/22 32/47/22 30/50/22 29/43/22
f 30/51/23 25/52/23 26/44/23 29/43/23
f 31/53/24 28/43/24 27/51/24 32/54/24
o cube.004
v 32.875000 1.000000 -6.562500
v 32.875000 1.000000 -7.562500
v 32.875000 -0.000000 -6.562500
v 32.875000 -0.000000 -7.562500
v 0.875000 1.000000 -7.562500
v 0.875000 1.000000 -6.562500
v 0.875000 -0.000000 -7.562500
v 0.875000 -0.000000 -6.562500
vn -0.0000 -0.0000 -1.0000
vn 1.0000 -0.0000 -0.0000
vn -0.0000 -0.0000 1.0000
vn -1.0000 -0.0000 -0.0000
vn -0.0000 1.0000 -0.0000
vn -0.0000 -1.0000 -0.0000
vt 0.015625 0.937500
vt 0.265625 0.937500
vt 0.265625 0.953125
vt 0.015625 0.953125
vt 0.000000 0.937500
vt 0.000000 0.953125
vt 0.281250 0.937500
vt 0.531250 0.937500
vt 0.531250 0.953125
vt 0.281250 0.953125
vt 0.265625 0.968750
vt 0.015625 0.968750
vt 0.515625 0.953125
vt 0.515625 0.968750
s 1
usemtl m_b5319e4d-bb5b-da07-50bb-b784c47addf3
f 36/55/25 39/56/25 37/57/25 34/58/25
f 35/59/26 36/55/26 34/58/26 33/60/26
f 40/61/27 35/62/27 33/63/27 38/64/27
f 39/56/28 40/61/28 38/64/28 37/57/28
f 38/65/29 33/66/29 34/58/29 37/57/29
f 39/67/30 36/57/30 35/65/30 40/68/30
o cube.005
v 0.937500 1.000001 7.417211
v 0.937500 1.000000 0.180479
v 0.937500 0.000001 7.417211
v 0.937500 0.000000 0.180479
v -0.062500 1.000000 0.180479
v -0.062500 1.000001 7.417211
v -0.062500 0.000000 0.180479
v -0.062500 0.000001 7.417211
vn -0.0000 -0.0000 -1.0000
vn 1.0000 -0.0000 -0.0000
vn -0.0000 -0.0000 1.0000
vn -1.0000 -0.0000 -0.0000
vn -0.0000 1.0000 -0.0000
vn -0.0000 -1.0000 -0.0000
vt 0.078125 0.750000
vt 0.093750 0.750000
vt 0.093750 0.765625
vt 0.078125 0.765625
vt 0.000000 0.750000
vt 0.000000 0.765625
vt 0.171875 0.750000
vt 0.187500 0.750000
vt 0.187500 0.765625
vt 0.171875 0.765625
vt 0.093750 0.843750
vt 0.078125 0.843750
vt 0.109375 0.765625
vt 0.109375 0.843750
s 1
usemtl m_b5319e4d-bb5b-da07-50bb-b784c47addf3
f 44/69/31 47/70/31 45/71/31 42/72/31
f 43/73/32 44/69/32 42/72/32 41/74/32
f 48/75/33 43/76/33 41/77/33 46/78/33
f 47/70/34 48/75/34 46/78/34 45/71/34
f 46/79/35 41/80/35 42/72/35 45/71/35
f 47/81/36 44/71/36 43/79/36 48/82/36
o cube.006
v 5.937500 2.000000 -6.500000
v 5.937500 2.000000 -7.500000
v 5.937500 1.000000 -6.500000
v 5.937500 1.000000 -7.500000
v 4.937500 2.000000 -7.500000
v 4.937500 2.000000 -6.500000
v 4.937500 1.000000 -7.500000
v 4.937500 1.000000 -6.500000
vn -0.0000 -0.0000 -1.0000
vn 1.0000 -0.0000 -0.0000
vn -0.0000 -0.0000 1.0000
vn -1.0000 -0.0000 -0.0000
vn -0.0000 1.0000 -0.0000
vn -0.0000 -1.0000 -0.0000
vt 0.203125 0.843750
vt 0.218750 0.843750
vt 0.218750 0.859375
vt 0.203125 0.859375
vt 0.187500 0.843750
vt 0.187500 0.859375
vt 0.234375 0.843750
vt 0.250000 0.843750
vt 0.250000 0.859375
vt 0.234375 0.859375
vt 0.218750 0.875000
vt 0.203125 0.875000
vt 0.234375 0.875000
s 1
usemtl m_b5319e4d-bb5b-da07-50bb-b784c47addf3
f 52/83/37 55/84/37 53/85/37 50/86/37
f 51/87/38 52/83/38 50/86/38 49/88/38
f 56/89/39 51/90/39 49/91/39 54/92/39
f 55/84/40 56/89/40 54/92/40 53/85/40
f 54/93/41 49/94/41 50/86/41 53/85/41
f 55/92/42 52/85/42 51/93/42 56/95/42
o cube.007
v 6.937500 2.000000 -6.500000
v 6.937500 2.000000 -7.500000
v 6.937500 1.000000 -6.500000
v 6.937500 1.000000 -7.500000
v 5.937500 2.000000 -7.500000
v 5.937500 2.000000 -6.500000
v 5.937500 1.000000 -7.500000
v 5.937500 1.000000 -6.500000
vn -0.0000 -0.0000 -1.0000
vn 1.0000 -0.0000 -0.0000
vn -0.0000 -0.0000 1.0000
vn -1.0000 -0.0000 -0.0000
vn -0.0000 1.0000 -0.0000
vn -0.0000 -1.0000 -0.0000
vt 0.203125 0.812500
vt 0.218750 0.812500
vt 0.218750 0.828125
vt 0.203125 0.828125
vt 0.187500 0.812500
vt 0.187500 0.828125
vt 0.234375 0.812500
vt 0.250000 0.812500
vt 0.250000 0.828125
vt 0.234375 0.828125
vt 0.218750 0.843750
vt 0.203125 0.843750
vt 0.234375 0.843750
s 1
usemtl m_b5319e4d-bb5b-da07-50bb-b784c47addf3
f 60/96/43 63/97/43 61/98/43 58/99/43
f 59/100/44 60/96/44 58/99/44 57/101/44
f 64/102/45 59/103/45 57/104/45 62/105/45
f 63/97/46 64/102/46 62/105/46 61/98/46
f 62/106/47 57/107/47 58/99/47 61/98/47
f 63/105/48 60/98/48 59/106/48 64/108/48
o cube.008
v 6.937500 3.000000 -6.500000
v 6.937500 3.000000 -7.500000
v 6.937500 2.000000 -6.500000
v 6.937500 2.000000 -7.500000
v 5.937500 3.000000 -7.500000
v 5.937500 3.000000 -6.500000
v 5.937500 2.000000 -7.500000
v 5.937500 2.000000 -6.500000
vn -0.0000 -0.0000 -1.0000
vn 1.0000 -0.0000 -0.0000
vn -0.0000 -0.0000 1.0000
vn -1.0000 -0.0000 -0.0000
vn -0.0000 1.0000 -0.0000
vn -0.0000 -1.0000 -0.0000
vt 0.203125 0.781250
vt 0.218750 0.781250
vt 0.218750 0.796875
vt 0.203125 0.796875
vt 0.187500 0.781250
vt 0.187500 0.796875
vt 0.234375 0.781250
vt 0.250000 0.781250
vt 0.250000 0.796875
vt 0.234375 0.796875
vt 0.218750 0.812500
vt 0.203125 0.812500
vt 0.234375 0.812500
s 1
usemtl m_b5319e4d-bb5b-da07-50bb-b784c47addf3
f 68/109/49 71/110/49 69/111/49 66/112/49
f 67/113/50 68/109/50 66/112/50 65/114/50
f 72/115/51 67/116/51 65/117/51 70/118/51
f 71/110/52 72/115/52 70/118/52 69/111/52
f 70/119/53 65/120/53 66/112/53 69/111/53
f 71/118/54 68/111/54 67/119/54 72/121/54
o cube.009
v 5.937500 3.000000 -6.500000
v 5.937500 3.000000 -7.500000
v 5.937500 2.000000 -6.500000
v 5.937500 2.000000 -7.500000
v 4.937500 3.000000 -7.500000
v 4.937500 3.000000 -6.500000
v 4.937500 2.000000 -7.500000
v 4.937500 2.000000 -6.500000
vn -0.0000 -0.0000 -1.0000
vn 1.0000 -0.0000 -0.0000
vn -0.0000 -0.0000 1.0000
vn -1.0000 -0.0000 -0.0000
vn -0.0000 1.0000 -0.0000
vn -0.0000 -1.0000 -0.0000
vt 0.203125 0.750000
vt 0.218750 0.750000
vt 0.218750 0.765625
vt 0.203125 0.765625
vt 0.187500 0.750000
vt 0.187500 0.765625
vt 0.234375 0.750000
vt 0.250000 0.750000
vt 0.250000 0.765625
vt 0.234375 0.765625
vt 0.218750 0.781250
vt 0.203125 0.781250
vt 0.234375 0.781250
s 1
usemtl m_b5319e4d-bb5b-da07-50bb-b784c47addf3
f 76/122/55 79/123/55 77/124/55 74/125/55
f 75/126/56 76/122/56 74/125/56 73/127/56
f 80/128/57 75/129/57 73/130/57 78/131/57
f 79/123/58 80/128/58 78/131/58 77/124/58
f 78/132/59 73/133/59 74/125/59 77/124/59
f 79/131/60 76/124/60 75/132/60 80/134/60
o cube.011
v 6.674294 2.500000 -5.000000
v 6.674294 2.500000 -6.500000
v 6.674294 1.500000 -5.000000
v 6.674294 1.500000 -6.500000
v 6.549294 2.500000 -6.500000
v 6.549294 2.500000 -5.000000
v 6.549294 1.500000 -6.500000
v 6.549294 1.500000 -5.000000
vn -0.0000 -0.0000 -1.0000
vn 1.0000 -0.0000 -0.0000
vn -0.0000 -0.0000 1.0000
vn -1.0000 -0.0000 -0.0000
vn -0.0000 1.0000 -0.0000
vn -0.0000 -1.0000 -0.0000
vt 0.074219 0.710938
vt 0.076172 0.710938
vt 0.076172 0.726562
vt 0.074219 0.726562
vt 0.050781 0.710938
vt 0.050781 0.726562
vt 0.099609 0.710938
vt 0.101562 0.710938
vt 0.101562 0.726562
vt 0.099609 0.726562
vt 0.076172 0.750000
vt 0.074219 0.750000
vt 0.078125 0.726562
vt 0.078125 0.750000
s 1
usemtl m_b5319e4d-bb5b-da07-50bb-b784c47addf3
f 84/135/61 87/136/61 85/137/61 82/138/61
f 83/139/62 84/135/62 82/138/62 81/140/62
f 88/141/63 83/142/63 81/143/63 86/144/63
f 87/136/64 88/141/64 86/144/64 85/137/64
f 86/145/65 81/146/65 82/138/65 85/137/65
f 87/147/66 84/137/66 83/145/66 88/148/66
o cube.012
v 5.312500 2.500000 -5.000000
v 5.312500 2.500000 -6.500000
v 5.312500 1.500000 -5.000000
v 5.312500 1.500000 -6.500000
v 5.187500 2.500000 -6.500000
v 5.187500 2.500000 -5.000000
v 5.187500 1.500000 -6.500000
v 5.187500 1.500000 -5.000000
vn -0.0000 -0.0000 -1.0000
vn 1.0000 -0.0000 -0.0000
vn -0.0000 -0.0000 1.0000
vn -1.0000 -0.0000 -0.0000
vn -0.0000 1.0000 -0.0000
vn -0.0000 -1.0000 -0.0000
vt 0.023438 0.710938
vt 0.025391 0.710938
vt 0.025391 0.726562
vt 0.023438 0.726562
vt 0.000000 0.710938
vt 0.000000 0.726562
vt 0.048828 0.710938
vt 0.050781 0.710938
vt 0.050781 0.726562
vt 0.048828 0.726562
vt 0.025391 0.750000
vt 0.023438 0.750000
vt 0.027344 0.726562
vt 0.027344 0.750000
s 1
usemtl m_b5319e4d-bb5b-da07-50bb-b784c47addf3.001
f 92/149/67 95/150/67 93/151/67 90/152/67
f 91/153/68 92/149/68 90/152/68 89/154/68
f 96/155/69 91/156/69 89/157/69 94/158/69
f 95/150/70 96/155/70 94/158/70 93/151/70
f 94/159/71 89/160/71 90/152/71 93/151/71
f 95/161/72 92/151/72 91/159/72 96/162/72
